<svg id="Capa_1" data-name="Capa 1" xmlns="http://www.w3.org/2000/svg" viewBox="0 0 191.25 204.21"><defs><style>.cls-1{fill:#fff;}</style></defs><path d="M159.1,19.17l7.54-6.45,12.13,12.12-6.51,6.52,6,6.59-5.87,6.62,19,19L178.57,76.44,191.13,89c-2.17,2.47-4.12,4.68-6.08,6.89h.15L172.05,82.74l-44.44,44.44-6.39-6.4,57.06-57L165.58,51,115,101.65l-6.51-6.51,63.41-63.4L159.12,19Z"/><path d="M82.91,185.33,64,204.21l-64-64L18.88,121.3h-.16l6.54,6.54L12.78,140.31l51,51,12.48-12.48,6.65,6.65Z"/><path d="M63.79,50.83l6.3,6.31L127.23,0l6.47,6.47V6.3L51,89,44.66,82.6,63.78,63.47l-6.24-6.24,6.4-6.4Z"/><path d="M185.05,95.89l6.2,6.2-3.42,3.41q-34.35,34.37-68.71,68.71c-5.24,5.23-3.94,4.82-8.91,0-.59-.56-1.24-1.06-1.86-1.58l0,.15a34.84,34.84,0,0,1,2.31-2.81q35.87-35.91,71.77-71.77c.85-.85,1.86-1.55,2.8-2.32Z"/><path d="M133.7,6.47,140.05.12l19,19.05,0-.16L95.69,82.44l-6.37-6.37L146.41,19,133.71,6.3Z"/><path d="M38.59,50.82l-6.55-6L51.12,25.8,70,44.65l-6.18,6.18h.15L51.16,38,38.37,50.83Z"/><path d="M108.35,172.64,89.28,191.7c-2.44-2.44-4.4-4.41-6.37-6.37v.16l19-19.05,6.35,6.35Z"/><path d="M31.57,83.18l-5.92-6.73,13-13-.23,0,6,6.75L31.42,83.18Z"/><path d="M25.23,102.23l-6.35-6.35,12.69-12.7h-.15l6.65,6.06-13,13Z"/><path d="M18.88,121.3l-6.36-6.36c4.39-4.38,8.55-8.55,12.71-12.71h-.16l6.35,6.34-12.7,12.71Z"/><path d="M38.6,63.5l-6.76-5.93c2.42-2.43,4.58-4.59,6.75-6.75h-.22l6,6.66-6,6Z"/><path class="cls-1" d="M38.37,63.53l6-6-6-6.66L51.16,38,63.94,50.83l-6.4,6.4,6.24,6.24L44.66,82.6,51,89,133.71,6.3,146.41,19,89.32,76.07l6.37,6.37L159.12,19l12.73,12.73-63.41,63.4,6.51,6.51L165.58,51l12.7,12.7-57.06,57.05,6.39,6.4,44.44-44.44L185.2,95.89c-.94.77-1.95,1.47-2.8,2.32Q146.49,134.08,110.63,170a34.84,34.84,0,0,0-2.31,2.81L102,166.44l-19,19.05-6.65-6.65L63.79,191.32l-51-51,12.48-12.48-6.54-6.54,12.7-12.71-6.35-6.34,13-13-6.65-6.06,12.91-12.9Z"/></svg>