<svg id="Capa_1" data-name="Capa 1" xmlns="http://www.w3.org/2000/svg" viewBox="0 0 112.11 114.16"><defs><style>.cls-1{fill:#fff;}</style></defs><path d="M15.65,35.42c1.15-.12,2.29-.33,3.44-.34,3.18,0,6.37,0,9.76,0l.22,4.32.06-.05H20.4V48c1.46.2,3.19-.07,3.88.65s.35,2.44.46,3.83l4.33.26v8.82l.05,0-4.46-.29V52.68l-4.33-.23-.2-4.17-4.48-.22Z"/><path d="M81.22,78.87V91.8H37.82V78.87l-.06,0h4.38v8.5H77v-8.5h4.24Z"/><path d="M29.07,39.38h4.28v-13h4.47l-.06-.06V56.8H33.31V43.9l-4.38-.25.2-4.32Z"/><path d="M85.56,35.05h4.38V65.62l-4.37.21.05,0V35Z"/><path d="M37.82,26.36V22h13L50.8,22V39.29H46.39v-13H37.76Z"/><path d="M59.49,22h13v4.35l.06-.06H63.8v13H59.54V22Z"/><path d="M72.52,26.36h8.7V30.7l0-.05H77v13H72.58V26.3Z"/><path d="M85.57,65.83v13H81.22l0,0v-13h4.35Z"/><path d="M33.47,70.18H29.12V61.49l-.05,0,4.35-.21v8.9Z"/><path d="M37.82,78.87H33.47V70.18l0,0h4.34v8.7Z"/><path d="M50.86,22V17.75h8.63V22l0-.06H50.8Z"/><path d="M81.22,30.7h4.34v4.35l.06-.06H81.27V30.65Z"/><path class="cls-1" d="M81.27,30.65V35h4.35V65.87H81.27v13H77v8.5H42.14v-8.5H37.76v-8.7H33.42v-8.9l-4.35.21V52.71l-4.33-.26c-.11-1.39.23-3.1-.46-3.83s-2.42-.45-3.88-.65V39.33h8.73l-.2,4.32,4.38.25V56.8h4.45V26.3h8.63v13H50.8V22h8.74V39.32H63.8v-13h8.78V43.63H77v-13Z"/></svg>