<svg id="Capa_1" data-name="Capa 1" xmlns="http://www.w3.org/2000/svg" viewBox="0 0 159.1 178.2"><defs><style>.cls-1{fill:#fff;}</style></defs><path d="M50,0c1.85,1.5,3.82,2.87,5.52,4.52,4.73,4.59,9.34,9.3,14.29,14.24l-6,6.64.16,0L51.21,12.66,38.59,25.28c1.86,2.43,4.78,4.57,4.72,6.63S40.25,36,38.4,38.18l5.94,6.7L31.46,57.76h.13l-6.1-6.94L37.94,38.39l-6-6.66,5.79-6.39-6.22-6.86Z"/><path d="M82.32,159.3l-18.9,18.9L0,114.78l18.9-18.9h-.15l6.4,6.4L12.73,114.69l51,51,12.42-12.42,6.2,6.2Z"/><path d="M63.81,25.4l6.26,6.25,19-19,6.55,6.54V19L51.06,63.55l-6.51-6.5L63.4,38.2l-6-6.76,6.59-6Z"/><path d="M152.7,101.61l6.4,6.41-44.67,44.67-6.7-6.09v.14l45.12-45.12Z"/><path d="M95.64,19.17,102,12.82l19,19v-.18L95.7,57l-6.44-6.44,19-19L95.63,19Z"/><path d="M133.65,44.47l19,19.05-6.35,6.34h.17L133.68,57l-19,19-6.22-6.22,25.39-25.38Z"/><path d="M146.35,69.86l12.7,12.7-6.35,6.35h.17l-6.32-6.32-19,19-6.38-6.38,25.32-25.32Z"/><path d="M107.73,146.6,88.67,165.66l-6.35-6.36v.15l19.06-19,6.35,6.34Z"/><path d="M25.25,76.83l-6.36-6.36c4.55-4.54,8.62-8.62,12.7-12.7h-.13l6.65,6.05-13,13Z"/><path d="M18.9,95.88l-6.35-6.35c4.36-4.37,8.53-8.54,12.7-12.7H25.1l6.35,6.34L18.75,95.87Z"/><path d="M121,31.86l6.23-6.23,12.62,12.61q-3.1,3.12-6.23,6.23h.17L121,31.68Z"/><path d="M152.7,88.91l6.35,6.35-6.35,6.35h.16l-6.34-6.35,6.35-6.35Z"/><path class="cls-1" d="M152.87,88.92l-6.35,6.35,6.34,6.35-45.12,45.12-6.35-6.34-19.06,19-6.2-6.2L63.71,165.67l-51-51,12.42-12.42-6.4-6.4,12.7-12.71L25.1,76.82c4.2-4.2,8.4-8.39,13-13l-6.65-6.05c4.21-4.2,8.41-8.4,12.88-12.88l-5.94-6.7c1.85-2.2,4.86-4.2,4.91-6.27s-2.86-4.2-4.72-6.63L51.21,12.66,64,25.42l-6.59,6,6,6.76L44.55,57.05l6.51,6.5L95.63,19,108.24,31.6l-19,19L95.7,57,121,31.68l12.79,12.79L108.43,69.85l6.22,6.22,19-19,12.84,12.83L121.2,95.19l6.38,6.38,19-19Z"/></svg>