<svg id="Capa_1" data-name="Capa 1" xmlns="http://www.w3.org/2000/svg" viewBox="0 0 112.11 114.16"><defs><style>.cls-1{fill:#fff;}</style></defs><path d="M60.85,6.68l.39,4.78,0-.05H52.33V54.79H47.88v-13H43.49v-13l-.09.07h4.54V11.37l4.28-.21c.12-1.51.23-3,.33-4.48Z"/><path d="M87.31,50.57l4.37,0V81.37l-4.37,0,0,.06V50.52Z"/><path d="M83,94.4v12.92H39.14V94.4l-.06,0h4.53V103H78.67V94.44H83Z"/><path d="M30.39,54.92h4.4V46.17l0,.06h4.34v26.1H34.85V59.41l-4.4-.21V54.87Z"/><path d="M21.75,63.55H17.54V50.7H30.39v4.22l.06-.05H21.7v8.74Z"/><path d="M30.43,33.13H26.25V15.81h4.19l0-.06q0,8.73,0,17.44Z"/><path d="M39.06,15.82l4.34-.21V28.86l.09-.07H39.14v-13Z"/><path d="M87.31,81.35V94.4H83l.05,0V81.22l4.35.19Z"/><path d="M34.79,46.17H30.43v-13l0,.06h4.35v13Z"/><path d="M30.44,77l-4.34-.29V67.89l-.05.06,4.34.27v8.85Z"/><path d="M30.44,15.81V11.39h8.62v4.43l.08-.07H30.4Z"/><path d="M39.14,94.4H34.8V85.71l-.07.05h4.35v8.69Z"/><path d="M34.8,85.71l-4.36-.21V77l-.05.06,4.34-.2v8.89Z"/><path d="M26.1,67.89l-4.35.25V63.55l-.05.06,4.35.19V68Z"/><path d="M61.24,11.46l4.26-.24V37.46h8.77v4.42l0-.05H65.47v13H61.24c0-.53-.11-1-.11-1.41q0-20.43,0-40.85a11.63,11.63,0,0,1,.13-1.17Z"/><path d="M74.27,41.88H83v4.34l.05,0H78.54v13H74.32V41.83Z"/><path d="M83,46.22h4.35v4.35l0,0H83V46.17Z"/><path class="cls-1" d="M83,46.17v4.35h4.35V81.41L83,81.22V94.44H78.67V103H43.61V94.45H39.08V85.76H34.73V76.87l-4.34.2V68.22L26.05,68V63.8l-4.35-.19V54.87h8.75V59.2l4.4.21V72.33h4.23V46.23H34.74v-13H30.39q0-8.71,0-17.44h8.74v13h4.35v13h4.39v13h4.45V11.41h8.94a11.63,11.63,0,0,0-.13,1.17q0,20.42,0,40.85c0,.44.07.88.11,1.41h4.23v-13h8.85V59.21h4.22v-13Z"/></svg>