<svg id="Capa_1" data-name="Capa 1" xmlns="http://www.w3.org/2000/svg" viewBox="0 0 178.79 216.92"><defs><style>.cls-1{fill:#fff;}</style></defs><path d="M178.79,37.56l-6.42,7.54.13,0L159.43,32,96,95.41l-6.5-6.5,19-19-6.43-6.43,19-19-.23,0,6.64,6.64,25.55-25.56,6.56,6,7-6.07Z"/><path d="M153.32,140.35l6.42,6.35-45,45-6.36-6.41v.16l45.14-45.14Z"/><path d="M82.92,198,64,216.92l-64-64L18.89,134h-.16l6.62,6.62L12.91,153.05l51.22,51.23,12.45-12.45,6.35,6.35Z"/><path d="M63.8,63.53,70.23,70,83,57.19h-.16l6.34,6.34L51.05,101.66l-6.18-6.18L63.74,76.61l-6.12-6.75L64,63.53Z"/><path d="M38.56,63.52,32.4,57.37,51.18,38.59,70,57.36,63.8,63.53H64L51.18,50.76,38.4,63.53Z"/><path d="M95.69,31.76l-6.1-6.11L114.91.33,121,6.45V6.31L95.54,31.78Z"/><path d="M133.59,19.07l6.66,6L120.89,44.46l.23,0-6.35-6.35,19.06-19.05Z"/><path d="M108.34,185.33,89.28,204.39,82.92,198v.15l19.33-19.32,6.07,6.63Z"/><path d="M83,57.19l-6.37-6.37,19-19.06-.15,0,6.36,6.36-19.05,19Z"/><path d="M31.59,95.87l-5.93-6.75,12.9-12.9-.15,0,6,6.72L31.43,95.89Z"/><path d="M121,6.45,127.47,0l12.6,12.6-6.48,6.47h.24L121,6.31Z"/><path d="M18.89,134l-6.35-6.35L25.24,115l-.16,0,6.35,6.35L18.73,134Z"/><path d="M25.24,115l-6.07-6.67L31.59,95.87l-.16,0L38.07,102l-13,13Z"/><path d="M38.56,76.22l-6.71-6,6.71-6.71H38.4l6.07,6.64-6.06,6.07Z"/><path d="M172.37,45.1,179,51,140.62,89.31l12.81,12.82L147,108.59h.16L134.18,95.65l-19,19L109,108.5c.72-.84,1.27-1.58,1.92-2.22q29.83-29.86,59.69-59.69a20.12,20.12,0,0,1,1.91-1.51Z"/><path d="M147,108.59l12.7,12.7-6.35,6.35h.16l-6.54-6.54-19.06,19.06L121.71,134l25.41-25.41Z"/><path d="M153.31,127.64l6.37,6.36-6.36,6.35h.15L147.12,134l6.35-6.35Z"/><path class="cls-1" d="M153.47,127.64,147.12,134l6.35,6.36-45.14,45.14-6.07-6.63L82.93,198.18l-6.35-6.35L64.13,204.28,12.91,153.05l12.44-12.44L18.73,134l12.7-12.7-6.35-6.35,13-13-6.64-6.06L44.36,83l-6-6.72,6.06-6.07L38.4,63.53,51.18,50.76,64,63.53l-6.33,6.33,6.12,6.75L44.87,95.48l6.18,6.18L89.19,63.52l-6.34-6.34,19.05-19-6.36-6.36L121,6.31l12.8,12.77L114.77,38.13l6.35,6.35-19,19,6.43,6.43-19,19,6.5,6.5L159.43,32,172.5,45.08a20.12,20.12,0,0,0-1.91,1.51q-29.85,29.84-59.69,59.69c-.65.64-1.2,1.38-1.92,2.22l6.18,6.18,19-19,12.94,12.94L121.71,134l6.16,6.16,19.06-19.06Z"/></svg>