<svg id="Capa_1" data-name="Capa 1" xmlns="http://www.w3.org/2000/svg" viewBox="0 0 103.55 76.31"><defs><style>.cls-1{fill:#fff;}</style></defs><path class="cls-1" d="M59.5,3.38c-.72-1.15-1.21-1.94-1.7-2.74L58.2,0c1.52.56,3.07,1,4.56,1.69,2.94,1.27,5.87,2.59,8.75,4a35.91,35.91,0,0,1,4.6,2.62c1.21.83,1.9,1.9,1,3.56-.26.49.3,1.67.8,2.26,4.52,5.41,7.89,11.39,9.24,18.36A22.48,22.48,0,0,1,82.26,52C73.82,62,63.85,70.2,51.37,74.66c-14.62,5.22-29.08-2.34-33.82-17.22-3.6-11.3-1-21.67,5.11-31.26,8.24-12.85,19.71-21,35.26-22.55C58.36,3.59,58.79,3.5,59.5,3.38Zm.64,15.71c-13.36,3.39-22.71,11-26.88,24.21a19,19,0,0,0-.33,8.84c1.19,6.55,7.55,10.68,13.41,8.83A66,66,0,0,0,73.8,43.72a11.93,11.93,0,0,0,3.34-8.83c-.06-5.33-2-10.06-4.49-14.63a2.47,2.47,0,0,0-1.77-1.12C67.27,19,63.66,19.09,60.14,19.09Z"/></svg>