<svg id="Capa_1" data-name="Capa 1" xmlns="http://www.w3.org/2000/svg" viewBox="0 0 191.25 204.08"><defs><style>.cls-1{fill:#fff;}</style></defs><path d="M32.16,19l-7.55-6.45L12.48,24.72,19,31.23l-6,6.59,5.87,6.63-19,19L12.68,76.31.12,88.88c2.17,2.46,4.13,4.67,6.08,6.89H6.06L19.2,82.62l44.44,44.43L70,120.66,13,63.6,25.68,50.9,76.3,101.53,82.81,95,19.4,31.61,32.13,18.88Z"/><path d="M108.34,185.2l18.88,18.88,64-64-18.88-18.88h.16L166,127.7l12.48,12.49-51,51L115,178.71l-6.65,6.66Z"/><path d="M127.46,50.71l-6.3,6.3L64-.12,57.55,6.35V6.17l82.68,82.68,6.37-6.37L127.47,63.35l6.24-6.24-6.4-6.41Z"/><path d="M6.2,95.77,0,102l3.42,3.42,68.71,68.71c5.24,5.23,3.94,4.81,8.92,0,.58-.56,1.23-1.06,1.85-1.59l0,.16a34.61,34.61,0,0,0-2.31-2.82Q44.76,134,8.85,98.08C8,97.23,7,96.53,6.06,95.76Z"/><path d="M57.55,6.35,51.2,0c-6.51,6.5-12.78,12.77-19,19l0-.16L95.56,82.31l6.37-6.37L44.85,18.86,57.54,6.17Z"/><path d="M152.67,50.7l6.54-6L140.14,25.67,121.28,44.53l6.18,6.18h-.15L140.1,37.91,152.88,50.7Z"/><path d="M82.9,172.51,102,191.58l6.37-6.38v.17l-19-19.05-6.35,6.35Z"/><path d="M159.68,83.06l5.92-6.74L152.65,63.38l.23,0-6,6.76,12.91,12.9Z"/><path d="M166,102.11l6.35-6.35-12.69-12.7h.15l-6.65,6.06,13,13Z"/><path d="M172.37,121.17l6.36-6.35L166,102.11h.16l-6.35,6.35,12.7,12.7Z"/><path d="M152.65,63.38l6.76-5.93-6.74-6.75h.21l-6,6.67,6,6Z"/><path class="cls-1" d="M152.88,63.4l-6-6,6-6.67L140.1,37.91,127.31,50.7l6.4,6.41-6.24,6.24,19.12,19.13-6.37,6.37L57.54,6.17,44.85,18.86l57.08,57.08-6.37,6.37L32.13,18.88,19.4,31.61,82.81,95l-6.51,6.51L25.68,50.9,13,63.6,70,120.66l-6.39,6.39L19.2,82.62,6.06,95.76C7,96.53,8,97.23,8.85,98.08q35.91,35.86,71.77,71.77a34.61,34.61,0,0,1,2.31,2.82l6.35-6.35,19,19.05,6.65-6.66,12.48,12.49,51-51L166,127.7l6.54-6.54-12.7-12.7,6.35-6.35-13-13,6.65-6.06-12.91-12.9Z"/></svg>