<svg id="Capa_1" data-name="Capa 1" xmlns="http://www.w3.org/2000/svg" viewBox="0 0 112.11 114.16"><defs><style>.cls-1{fill:#fff;}</style></defs><path d="M51.39,11.28l.37-4.79h8.3v4.45l4.31.21.26,4.27h13v8.79h8.6l.28,4.44,0,0h-9V59H73.2V20H64.5V54.6H60.05V11.21H51.34Z"/><path d="M82.17,94.2v12.92H38.35V94.2l-.05,0h4.47v8.54H77.68V94.25h4.55Z"/><path d="M29.61,54.72h4.31V15.62h4.43l-.05-.06V72.14H33.93V59.05H29.66V54.67Z"/><path d="M86.52,28.65h4.24V31q0,23.52,0,47c0,3.58.3,3-3.05,3-.39,0-.78.06-1.17.09l0,.07c-.06-.59-.17-1.17-.18-1.76q0-24.55,0-49.11a17,17,0,0,1,.16-1.75Z"/><path d="M38.35,15.62V11.28h13l0-.07V54.62H47V15.56H38.3Z"/><path d="M21,63.34l-4.27.21V50.49h12.9v4.23l.05,0H20.91v8.75Z"/><path d="M86.54,81.15v13H82.17l.06,0v-13h4.35Z"/><path d="M29.66,76.81l-4.33-.28V67.68l-.07.08,4.35.28v8.83Z"/><path d="M34,85.5H29.66V76.81l-.05.06L34,76.66v8.9Z"/><path d="M38.35,94.2H34V85.5l0,.06H38.3v8.69Z"/><path d="M25.33,67.68,21,68V63.34l-.07.08,4.35.21v4.13Z"/><path class="cls-1" d="M25.26,67.76V63.63l-4.35-.21V54.67h8.75v4.38h4.27V72.14H38.3V15.56H47V54.62h4.36V11.21h8.71V54.6H64.5V20h8.7V59h4.37V28.6h9a17,17,0,0,0-.16,1.75q0,24.56,0,49.11c0,.59.12,1.17.18,1.76H82.23v13H77.68v8.54H42.77V94.25H38.3V85.56H34v-8.9l-4.34.21V68Z"/></svg>