<svg id="Capa_1" data-name="Capa 1" xmlns="http://www.w3.org/2000/svg" viewBox="0 0 159.05 178.2"><defs><style>.cls-1{fill:#fff;}</style></defs><path d="M109.05,0c-1.85,1.5-3.82,2.87-5.52,4.52-4.73,4.59-9.34,9.3-14.29,14.24l6,6.64-.16,0,12.76-12.76,12.62,12.62c-1.86,2.43-4.78,4.57-4.72,6.63s3.06,4.07,4.91,6.27l-5.94,6.7,12.88,12.88h-.13l6.1-6.94L121.11,38.39l6-6.66-5.8-6.39,6.23-6.86Z"/><path d="M76.73,159.3l18.9,18.9,63.42-63.42-18.9-18.9h.15l-6.4,6.4,12.42,12.42-51,51L82.92,153.25l-6.2,6.2Z"/><path d="M95.24,25.4,89,31.65l-19-19-6.54,6.54V19L108,63.55l6.51-6.5L95.65,38.2l6-6.76-6.59-6Z"/><path d="M6.35,101.61,0,108l44.67,44.67,6.7-6.09v.14L6.19,101.62Z"/><path d="M63.42,19.17l-6.36-6.35-19,19v-.18L63.35,57l6.44-6.44-19-19L63.42,19Z"/><path d="M25.4,44.47l-19,19.05,6.35,6.34h-.17L25.37,57l19,19,6.22-6.22L25.24,44.47Z"/><path d="M12.7,69.86,0,82.56l6.35,6.35H6.18L12.5,82.6l19,19,6.38-6.38L12.53,69.87Z"/><path d="M51.32,146.6l19.06,19.06,6.35-6.36v.15l-19.06-19-6.35,6.34Z"/><path d="M133.8,76.83l6.36-6.36-12.7-12.7h.13l-6.65,6.05,13,13Z"/><path d="M140.15,95.88l6.35-6.35-12.7-12.7H134l-6.35,6.34,12.7,12.71Z"/><path d="M38,31.86l-6.23-6.23L19.17,38.24l6.23,6.23h-.16L38,31.68Z"/><path d="M6.35,88.91,0,95.26l6.35,6.35H6.19l6.35-6.35L6.18,88.92Z"/><path class="cls-1" d="M6.18,88.92l6.36,6.35-6.35,6.35,45.12,45.12,6.35-6.34,19.06,19,6.2-6.2,12.43,12.42,51-51L133.9,102.27l6.4-6.4L127.6,83.16,134,76.82l-13-13,6.65-6.05L114.71,44.88l5.94-6.7c-1.85-2.2-4.86-4.2-4.91-6.27s2.86-4.2,4.72-6.63L107.84,12.66,95.08,25.42l6.59,6-6,6.76L114.5,57.05,108,63.55,63.42,19,50.81,31.6l19,19L63.35,57,38,31.68,25.24,44.47,50.62,69.85,44.4,76.07l-19-19L12.53,69.87,37.85,95.19l-6.38,6.38-19-19Z"/></svg>