<svg id="Capa_1" data-name="Capa 1" xmlns="http://www.w3.org/2000/svg" viewBox="0 0 178.95 216.92"><defs><style>.cls-1{fill:#fff;}</style></defs><path d="M.16,37.56,6.58,45.1l-.13,0L19.52,32l63.39,63.4,6.5-6.5-19-19,6.43-6.43-19-19,.23,0L51.42,51.1,25.87,25.54l-6.56,6-7-6.07Z"/><path d="M25.63,140.35l-6.42,6.35,45,45,6.36-6.41v.16L25.48,140.35Z"/><path d="M96,198l18.89,18.89,64-64L160.06,134h.16l-6.62,6.62L166,153.05l-51.22,51.23-12.45-12.45L96,198.18Z"/><path d="M115.15,63.53,108.72,70,95.94,57.19h.16l-6.34,6.34,38.14,38.14,6.18-6.18L115.21,76.61l6.12-6.75L115,63.53Z"/><path d="M140.39,63.52l6.16-6.15L127.77,38.59,109,57.36l6.16,6.17H115l12.77-12.77,12.78,12.77Z"/><path d="M83.26,31.76l6.1-6.11L64,.33,57.93,6.45V6.31L83.41,31.78Z"/><path d="M45.36,19.07l-6.66,6L58.06,44.46l-.23,0,6.35-6.35L45.12,19.08Z"/><path d="M70.61,185.33l19.06,19.06L96,198v.15L76.69,178.86l-6.07,6.63Z"/><path d="M95.94,57.19l6.37-6.37-19-19.06.15,0-6.36,6.36,19,19Z"/><path d="M147.36,95.87l5.93-6.75-12.9-12.9.15,0L134.59,83l12.93,12.93Z"/><path d="M57.93,6.45,51.48,0,38.88,12.6l6.48,6.47h-.24L57.92,6.31Z"/><path d="M160.06,134l6.35-6.35L153.71,115l.16,0-6.35,6.35,12.7,12.7Z"/><path d="M153.71,115l6.07-6.67L147.36,95.87l.16,0L140.88,102l13,13Z"/><path d="M140.39,76.22l6.71-6c-2.44-2.44-4.57-4.58-6.71-6.71h.16l-6.07,6.64,6.06,6.07Z"/><path d="M6.58,45.1,0,51,38.33,89.31,25.52,102.13,32,108.59h-.15L44.77,95.65l19,19L70,108.5c-.72-.84-1.27-1.58-1.92-2.22Q38.21,76.42,8.36,46.59a20.12,20.12,0,0,0-1.91-1.51Z"/><path d="M32,108.59l-12.69,12.7,6.35,6.35h-.16L32,121.1l19.06,19.06L57.24,134,31.83,108.59Z"/><path d="M25.64,127.64,19.27,134l6.36,6.35h-.15L31.83,134l-6.35-6.35Z"/><path class="cls-1" d="M25.48,127.64,31.83,134l-6.35,6.36,45.14,45.14,6.07-6.63L96,198.18l6.35-6.35,12.45,12.45L166,153.05,153.6,140.61l6.62-6.62-12.7-12.7,6.35-6.35-13-13,6.64-6.06L134.59,83l5.95-6.72-6.06-6.07,6.07-6.64L127.77,50.76,115,63.53l6.33,6.33-6.12,6.75,18.87,18.87-6.18,6.18L89.76,63.52l6.34-6.34-19-19,6.36-6.36L57.92,6.31,45.12,19.08,64.18,38.13l-6.35,6.35,19,19-6.43,6.43,19,19-6.5,6.5L19.52,32,6.45,45.08a20.12,20.12,0,0,1,1.91,1.51q29.85,29.84,59.69,59.69c.65.64,1.2,1.38,1.92,2.22l-6.18,6.18-19-19L31.83,108.59,57.24,134l-6.16,6.16L32,121.1Z"/></svg>